<?xml version="1.0" encoding="UTF-8"?><svg xmlns="http://www.w3.org/2000/svg" xmlns:xlink="http://www.w3.org/1999/xlink" width="2835" zoomAndPan="magnify" viewBox="0 0 2835 1417.499962" height="1417.499962" preserveAspectRatio="xMidYMid meet" version="1.0"><defs><clipPath id="clip-0"><path d="M 0.5 0 L 2834.5 0 L 2834.5 1417 L 0.5 1417 Z M 0.5 0 " clip-rule="nonzero"/></clipPath><clipPath id="clip-1"><path d="M 0.5 1365 L 112 1365 L 112 1417 L 0.5 1417 Z M 0.5 1365 " clip-rule="nonzero"/></clipPath><clipPath id="clip-2"><path d="M 0.5 755 L 795 755 L 795 981 L 0.5 981 Z M 0.5 755 " clip-rule="nonzero"/></clipPath><clipPath id="clip-3"><path d="M 1475 1238 L 1989 1238 L 1989 1417 L 1475 1417 Z M 1475 1238 " clip-rule="nonzero"/></clipPath><clipPath id="clip-4"><path d="M 1661 1258 L 1770 1258 L 1770 1417 L 1661 1417 Z M 1661 1258 " clip-rule="nonzero"/></clipPath><clipPath id="clip-5"><path d="M 1819 1413 L 1917 1413 L 1917 1417 L 1819 1417 Z M 1819 1413 " clip-rule="nonzero"/></clipPath></defs><g clip-path="url(#clip-0)"><path fill="rgb(100%, 100%, 100%)" d="M 0.5 0 L 2834.5 0 L 2834.5 1424.496094 L 0.5 1424.496094 Z M 0.5 0 " fill-opacity="1" fill-rule="nonzero"/><path fill="rgb(100%, 100%, 100%)" d="M 0.5 0 L 2834.5 0 L 2834.5 1417 L 0.5 1417 Z M 0.5 0 " fill-opacity="1" fill-rule="nonzero"/><path fill="rgb(100%, 56.858826%, 30.198669%)" d="M 0.5 0 L 2834.5 0 L 2834.5 1417 L 0.5 1417 Z M 0.5 0 " fill-opacity="1" fill-rule="nonzero"/></g><g clip-path="url(#clip-1)"><path fill="rgb(100%, 56.858826%, 30.198669%)" d="M 111.628906 1393.660156 L 107.414062 1477.527344 L -453.375 1449.339844 L -449.160156 1365.476562 Z M 111.628906 1393.660156 " fill-opacity="1" fill-rule="nonzero"/></g><path fill="rgb(100%, 56.858826%, 30.198669%)" d="M 1213.078125 560.015625 L 1205.34375 713.886719 L 176.441406 662.171875 L 184.175781 508.304688 Z M 1213.078125 560.015625 " fill-opacity="1" fill-rule="nonzero"/><path fill="rgb(100%, 56.858826%, 30.198669%)" d="M 888.71875 884.394531 L 880.984375 1038.261719 L 154.304688 1001.738281 L 162.039062 847.867188 Z M 888.71875 884.394531 " fill-opacity="1" fill-rule="nonzero"/><path fill="rgb(98.81897%, 96.469116%, 51.368713%)" d="M 408.554688 1135.503906 L 22.996094 749.945312 C 7.113281 734.066406 7.109375 708.1875 22.984375 692.3125 L 742.542969 -27.242188 C 758.417969 -43.117188 784.292969 -43.113281 800.175781 -27.234375 L 1185.730469 358.324219 C 1201.613281 374.207031 1201.617188 400.082031 1185.742188 415.957031 L 466.183594 1135.511719 C 450.308594 1151.390625 424.433594 1151.382812 408.554688 1135.503906 Z M 408.554688 1135.503906 " fill-opacity="1" fill-rule="nonzero"/><path fill="rgb(100%, 56.858826%, 30.198669%)" d="M 1152.027344 475.300781 L 1139.457031 640.515625 L 33.828125 556.40625 L 46.394531 391.191406 Z M 1152.027344 475.300781 " fill-opacity="1" fill-rule="nonzero"/><g clip-path="url(#clip-2)"><path fill="rgb(100%, 56.858826%, 30.198669%)" d="M 794.105469 815.285156 L 781.535156 980.496094 L 0.34375 921.066406 L 12.910156 755.851562 Z M 794.105469 815.285156 " fill-opacity="1" fill-rule="nonzero"/></g><path fill="rgb(98.81897%, 96.469116%, 51.368713%)" d="M 1578.609375 1193.234375 L 1411.726562 1360.113281 C 1404.851562 1366.988281 1393.652344 1366.992188 1386.78125 1360.121094 L 1075.332031 1048.671875 C 1068.460938 1041.800781 1068.464844 1030.601562 1075.335938 1023.726562 L 1242.21875 856.84375 C 1249.09375 849.96875 1260.292969 849.96875 1267.164062 856.839844 L 1578.613281 1168.289062 C 1585.484375 1175.160156 1585.480469 1186.359375 1578.609375 1193.234375 Z M 1578.609375 1193.234375 " fill-opacity="1" fill-rule="nonzero"/><path fill="rgb(100%, 56.858826%, 30.198669%)" d="M 1292.851562 871.433594 L 1364.359375 876.875 L 1327.953125 1355.425781 L 1256.445312 1349.988281 Z M 1292.851562 871.433594 " fill-opacity="1" fill-rule="nonzero"/><path fill="rgb(100%, 56.858826%, 30.198669%)" d="M 1440.007812 1026.355469 L 1511.515625 1031.792969 L 1485.792969 1369.921875 L 1414.28125 1364.480469 Z M 1440.007812 1026.355469 " fill-opacity="1" fill-rule="nonzero"/><path fill="rgb(98.81897%, 96.469116%, 51.368713%)" d="M 1192.828125 793.113281 L 1025.949219 959.996094 C 1019.074219 966.867188 1007.875 966.871094 1001.003906 960 L 689.554688 648.550781 C 682.683594 641.679688 682.6875 630.480469 689.558594 623.605469 L 856.441406 456.722656 C 863.316406 449.851562 874.515625 449.847656 881.386719 456.71875 L 1192.835938 768.167969 C 1199.707031 775.039062 1199.703125 786.238281 1192.828125 793.113281 Z M 1192.828125 793.113281 " fill-opacity="1" fill-rule="nonzero"/><path fill="rgb(100%, 56.858826%, 30.198669%)" d="M 907.074219 471.3125 L 978.582031 476.753906 L 942.175781 955.304688 L 870.667969 949.867188 Z M 907.074219 471.3125 " fill-opacity="1" fill-rule="nonzero"/><path fill="rgb(100%, 56.858826%, 30.198669%)" d="M 1054.226562 626.234375 L 1125.738281 631.671875 L 1100.015625 969.800781 L 1028.503906 964.359375 Z M 1054.226562 626.234375 " fill-opacity="1" fill-rule="nonzero"/><g clip-path="url(#clip-3)"><path fill="rgb(98.81897%, 96.469116%, 51.368713%)" d="M 1983.75 1580.226562 L 1816.867188 1747.109375 C 1809.992188 1753.984375 1798.792969 1753.984375 1791.921875 1747.113281 L 1480.476562 1435.667969 C 1473.601562 1428.796875 1473.605469 1417.59375 1480.480469 1410.722656 L 1647.359375 1243.839844 C 1654.234375 1236.964844 1665.433594 1236.964844 1672.304688 1243.835938 L 1983.753906 1555.28125 C 1990.625 1562.15625 1990.625 1573.355469 1983.75 1580.226562 Z M 1983.75 1580.226562 " fill-opacity="1" fill-rule="nonzero"/></g><g clip-path="url(#clip-4)"><path fill="rgb(100%, 56.858826%, 30.198669%)" d="M 1697.992188 1258.429688 L 1769.503906 1263.867188 L 1733.097656 1742.421875 L 1661.585938 1736.980469 Z M 1697.992188 1258.429688 " fill-opacity="1" fill-rule="nonzero"/></g><g clip-path="url(#clip-5)"><path fill="rgb(100%, 56.858826%, 30.198669%)" d="M 1845.148438 1413.347656 L 1916.65625 1418.789062 L 1890.933594 1756.914062 L 1819.425781 1751.476562 Z M 1845.148438 1413.347656 " fill-opacity="1" fill-rule="nonzero"/></g><path fill="rgb(98.81897%, 96.469116%, 51.368713%)" d="M 1709.925781 768.539062 L 1543.042969 935.421875 C 1536.167969 942.296875 1524.96875 942.296875 1518.097656 935.425781 L 1206.648438 623.976562 C 1199.777344 617.105469 1199.78125 605.90625 1206.652344 599.03125 L 1373.535156 432.152344 C 1380.410156 425.277344 1391.609375 425.277344 1398.480469 432.148438 L 1709.929688 743.59375 C 1716.800781 750.464844 1716.796875 761.664062 1709.925781 768.539062 Z M 1709.925781 768.539062 " fill-opacity="1" fill-rule="nonzero"/><path fill="rgb(100%, 56.858826%, 30.198669%)" d="M 1424.167969 446.742188 L 1495.675781 452.179688 L 1459.269531 930.734375 L 1387.761719 925.292969 Z M 1424.167969 446.742188 " fill-opacity="1" fill-rule="nonzero"/><path fill="rgb(100%, 56.858826%, 30.198669%)" d="M 1571.320312 601.660156 L 1642.832031 607.101562 L 1617.109375 945.226562 L 1545.597656 939.785156 Z M 1571.320312 601.660156 " fill-opacity="1" fill-rule="nonzero"/><path fill="rgb(98.81897%, 96.469116%, 51.368713%)" d="M 1324.144531 368.417969 L 1157.265625 535.300781 C 1150.390625 542.175781 1139.191406 542.175781 1132.320312 535.304688 L 820.871094 223.859375 C 814 216.988281 814.003906 205.785156 820.875 198.914062 L 987.757812 32.03125 C 994.632812 25.15625 1005.832031 25.15625 1012.703125 32.027344 L 1324.152344 343.472656 C 1331.023438 350.34375 1331.019531 361.546875 1324.144531 368.417969 Z M 1324.144531 368.417969 " fill-opacity="1" fill-rule="nonzero"/><path fill="rgb(100%, 56.858826%, 30.198669%)" d="M 1038.390625 46.621094 L 1109.898438 52.058594 L 1073.492188 530.613281 L 1001.984375 525.171875 Z M 1038.390625 46.621094 " fill-opacity="1" fill-rule="nonzero"/><path fill="rgb(100%, 56.858826%, 30.198669%)" d="M 1185.542969 201.539062 L 1257.054688 206.980469 L 1231.332031 545.105469 L 1159.820312 539.667969 Z M 1185.542969 201.539062 " fill-opacity="1" fill-rule="nonzero"/><path fill="rgb(98.81897%, 96.469116%, 51.368713%)" d="M 2115.066406 1155.535156 L 1948.183594 1322.417969 C 1941.308594 1329.289062 1930.109375 1329.292969 1923.238281 1322.421875 L 1611.789062 1010.972656 C 1604.917969 1004.101562 1604.921875 992.902344 1611.796875 986.027344 L 1778.675781 819.148438 C 1785.550781 812.273438 1796.75 812.269531 1803.621094 819.140625 L 2115.070312 1130.589844 C 2121.941406 1137.460938 2121.9375 1148.660156 2115.066406 1155.535156 Z M 2115.066406 1155.535156 " fill-opacity="1" fill-rule="nonzero"/><path fill="rgb(100%, 56.858826%, 30.198669%)" d="M 1829.308594 833.734375 L 1900.820312 839.175781 L 1864.414062 1317.730469 L 1792.902344 1312.289062 Z M 1829.308594 833.734375 " fill-opacity="1" fill-rule="nonzero"/><path fill="rgb(100%, 56.858826%, 30.198669%)" d="M 1976.464844 988.65625 L 2047.972656 994.097656 L 2022.25 1332.222656 L 1950.742188 1326.78125 Z M 1976.464844 988.65625 " fill-opacity="1" fill-rule="nonzero"/><path fill="rgb(98.81897%, 96.469116%, 51.368713%)" d="M 1890.28125 381.542969 L 1723.398438 548.425781 C 1716.523438 555.300781 1705.324219 555.300781 1698.453125 548.429688 L 1387.003906 236.984375 C 1380.132812 230.113281 1380.136719 218.910156 1387.007812 212.039062 L 1553.890625 45.15625 C 1560.765625 38.28125 1571.964844 38.28125 1578.835938 45.152344 L 1890.285156 356.597656 C 1897.15625 363.472656 1897.152344 374.671875 1890.28125 381.542969 Z M 1890.28125 381.542969 " fill-opacity="1" fill-rule="nonzero"/><path fill="rgb(100%, 56.858826%, 30.198669%)" d="M 1604.523438 59.746094 L 1676.03125 65.183594 L 1639.625 543.738281 L 1568.117188 538.296875 Z M 1604.523438 59.746094 " fill-opacity="1" fill-rule="nonzero"/><path fill="rgb(100%, 56.858826%, 30.198669%)" d="M 1751.679688 214.664062 L 1823.1875 220.105469 L 1797.464844 558.230469 L 1725.953125 552.792969 Z M 1751.679688 214.664062 " fill-opacity="1" fill-rule="nonzero"/><path fill="rgb(98.81897%, 96.469116%, 51.368713%)" d="M 1504.5 -18.574219 L 1337.621094 148.304688 C 1330.746094 155.179688 1319.546875 155.183594 1312.675781 148.308594 L 1001.226562 -163.136719 C 994.355469 -170.007812 994.359375 -181.207031 1001.230469 -188.082031 L 1168.113281 -354.964844 C 1174.988281 -361.839844 1186.1875 -361.839844 1193.058594 -354.96875 L 1504.507812 -43.519531 C 1511.378906 -36.648438 1511.375 -25.449219 1504.5 -18.574219 Z M 1504.5 -18.574219 " fill-opacity="1" fill-rule="nonzero"/><path fill="rgb(100%, 56.858826%, 30.198669%)" d="M 1218.746094 -340.375 L 1290.253906 -334.933594 L 1253.847656 143.617188 L 1182.339844 138.175781 Z M 1218.746094 -340.375 " fill-opacity="1" fill-rule="nonzero"/><path fill="rgb(100%, 56.858826%, 30.198669%)" d="M 1365.898438 -185.457031 L 1437.410156 -180.015625 L 1411.6875 158.109375 L 1340.175781 152.671875 Z M 1365.898438 -185.457031 " fill-opacity="1" fill-rule="nonzero"/><path fill="rgb(98.81897%, 96.469116%, 51.368713%)" d="M 2295.421875 768.539062 L 2128.539062 935.421875 C 2121.664062 942.296875 2110.464844 942.296875 2103.59375 935.425781 L 1792.144531 623.976562 C 1785.273438 617.105469 1785.277344 605.90625 1792.152344 599.03125 L 1959.03125 432.152344 C 1965.90625 425.277344 1977.105469 425.277344 1983.976562 432.148438 L 2295.425781 743.59375 C 2302.296875 750.464844 2302.292969 761.664062 2295.421875 768.539062 Z M 2295.421875 768.539062 " fill-opacity="1" fill-rule="nonzero"/><path fill="rgb(100%, 56.858826%, 30.198669%)" d="M 2009.664062 446.742188 L 2081.175781 452.179688 L 2044.769531 930.734375 L 1973.257812 925.292969 Z M 2009.664062 446.742188 " fill-opacity="1" fill-rule="nonzero"/><path fill="rgb(100%, 56.858826%, 30.198669%)" d="M 2156.820312 601.660156 L 2228.328125 607.101562 L 2202.605469 945.226562 L 2131.097656 939.785156 Z M 2156.820312 601.660156 " fill-opacity="1" fill-rule="nonzero"/><path fill="rgb(98.81897%, 96.469116%, 51.368713%)" d="M 2021.597656 -18.574219 L 1854.714844 148.304688 C 1847.839844 155.179688 1836.640625 155.183594 1829.769531 148.308594 L 1518.320312 -163.136719 C 1511.449219 -170.007812 1511.453125 -181.207031 1518.324219 -188.082031 L 1685.207031 -354.964844 C 1692.082031 -361.839844 1703.28125 -361.839844 1710.152344 -354.96875 L 2021.601562 -43.519531 C 2028.472656 -36.648438 2028.46875 -25.449219 2021.597656 -18.574219 Z M 2021.597656 -18.574219 " fill-opacity="1" fill-rule="nonzero"/><path fill="rgb(100%, 56.858826%, 30.198669%)" d="M 1735.839844 -340.375 L 1807.347656 -334.933594 L 1770.941406 143.617188 L 1699.433594 138.175781 Z M 1735.839844 -340.375 " fill-opacity="1" fill-rule="nonzero"/><path fill="rgb(100%, 56.858826%, 30.198669%)" d="M 1882.992188 -185.457031 L 1954.503906 -180.015625 L 1928.78125 158.109375 L 1857.269531 152.671875 Z M 1882.992188 -185.457031 " fill-opacity="1" fill-rule="nonzero"/><path fill="rgb(98.81897%, 96.469116%, 51.368713%)" d="M 2426.738281 368.417969 L 2259.855469 535.300781 C 2252.980469 542.175781 2241.78125 542.175781 2234.910156 535.304688 L 1923.460938 223.859375 C 1916.589844 216.988281 1916.59375 205.785156 1923.46875 198.914062 L 2090.347656 32.03125 C 2097.222656 25.15625 2108.421875 25.15625 2115.292969 32.027344 L 2426.742188 343.472656 C 2433.613281 350.34375 2433.609375 361.546875 2426.738281 368.417969 Z M 2426.738281 368.417969 " fill-opacity="1" fill-rule="nonzero"/><path fill="rgb(100%, 56.858826%, 30.198669%)" d="M 2140.980469 46.621094 L 2212.492188 52.058594 L 2176.085938 530.613281 L 2104.574219 525.171875 Z M 2140.980469 46.621094 " fill-opacity="1" fill-rule="nonzero"/><path fill="rgb(100%, 56.858826%, 30.198669%)" d="M 2288.136719 201.539062 L 2359.644531 206.980469 L 2333.921875 545.105469 L 2262.414062 539.667969 Z M 2288.136719 201.539062 " fill-opacity="1" fill-rule="nonzero"/><path fill="rgb(98.81897%, 96.469116%, 51.368713%)" d="M 664.542969 193.015625 L 497.660156 359.898438 C 490.789062 366.773438 479.585938 366.773438 472.714844 359.902344 L 161.269531 48.457031 C 154.398438 41.585938 154.398438 30.382812 161.273438 23.511719 L 328.15625 -143.371094 C 335.027344 -150.246094 346.226562 -150.246094 353.101562 -143.375 L 664.546875 168.070312 C 671.417969 174.941406 671.417969 186.144531 664.542969 193.015625 Z M 664.542969 193.015625 " fill-opacity="1" fill-rule="nonzero"/><path fill="rgb(100%, 56.858826%, 30.198669%)" d="M 378.785156 -128.78125 L 450.296875 -123.34375 L 413.890625 355.210938 L 342.378906 349.769531 Z M 378.785156 -128.78125 " fill-opacity="1" fill-rule="nonzero"/><path fill="rgb(100%, 56.858826%, 30.198669%)" d="M 525.941406 26.136719 L 597.453125 31.578125 L 571.726562 369.703125 L 500.21875 364.265625 Z M 525.941406 26.136719 " fill-opacity="1" fill-rule="nonzero"/></svg>