<?xml version="1.0" encoding="UTF-8"?><svg xmlns="http://www.w3.org/2000/svg" xmlns:xlink="http://www.w3.org/1999/xlink" width="375" zoomAndPan="magnify" viewBox="0 0 375 374.999991" height="374.999991" preserveAspectRatio="xMidYMid meet" version="1.0"><rect x="-37.5" width="450" fill="rgb(100%, 100%, 100%)" y="-37.499999" height="449.999989" fill-opacity="1"/><rect x="-37.5" width="450" fill="rgb(100%, 100%, 100%)" y="-37.499999" height="449.999989" fill-opacity="1"/><rect x="-37.5" width="450" fill="rgb(100%, 100%, 100%)" y="-37.499999" height="449.999989" fill-opacity="1"/><path fill="rgb(98.81897%, 96.469116%, 51.368713%)" d="M 271.273438 356.304688 L 103.746094 356.304688 C 96.84375 356.304688 91.222656 350.683594 91.222656 343.789062 L 91.222656 31.136719 C 91.222656 24.238281 96.84375 18.617188 103.746094 18.617188 L 271.273438 18.617188 C 278.171875 18.617188 283.796875 24.238281 283.796875 31.136719 L 283.796875 343.789062 C 283.796875 350.683594 278.171875 356.304688 271.273438 356.304688 Z M 271.273438 356.304688 " fill-opacity="1" fill-rule="nonzero"/><path fill="rgb(100%, 100%, 100%)" d="M 289.363281 51.351562 L 322.527344 89.976562 L 64.050781 311.90625 L 30.886719 273.28125 Z M 289.363281 51.351562 " fill-opacity="1" fill-rule="nonzero"/><path fill="rgb(100%, 100%, 100%)" d="M 285.464844 202.972656 L 318.628906 241.597656 L 136 398.402344 L 102.835938 359.78125 Z M 285.464844 202.972656 " fill-opacity="1" fill-rule="nonzero"/></svg>